# AST/ASF file generated using VICON BodyLanguage
# -----------------------------------------------
:version 1.10
:name VICON
:units
  mass 1.0
  length 0.45
  angle deg
:documentation
   .ast/.asf automatically generated from VICON data using
   VICON BodyBuilder and BodyLanguage model FoxedUp or BRILLIANT.MOD
:root
   order TX TY TZ RX RY RZ
   axis XYZ
   position 0 0 0  
   orientation 0 0 0 
:bonedata
  begin
     id 1 
     name lhipjoint
     direction 0.690799 -0.707083 0.151096 
     length 2.54797 
     axis 0 0 0  XYZ
  end
  begin
     id 2 
     name lfemur
     direction 0.34202 -0.939693 0  
     length 7.21646  
     axis 0 0 20  XYZ
    dof rx ry rz
    limits (-160.0 20.0)
           (-70.0 70.0)
           (-60.0 70.0)
  end
  begin
     id 3 
     name ltibia
     direction 0.34202 -0.939693 0   
     length 8.16759   
     axis 0 0 20   XYZ
    dof rx
    limits (-10.0 170.0)
  end
  begin
     id 4 
     name lfoot
     direction 0.0487203 -0.133858 0.989802   
     length 1.93375   
     axis -90 7.62852e-016 20   XYZ
    dof rx rz
    limits (-45.0 90.0)
           (-70.0 20.0)
  end
  begin
     id 5 
     name ltoes
     direction 1.53453e-011 -4.21783e-011 1   
     length 0.979747   
     axis -90 7.62852e-016 20   XYZ
    dof rx
    limits (-90.0 20.0)
  end
  begin
     id 6 
     name rhipjoint
     direction -0.694693 -0.703425 0.150315   
     length 2.56122  
     axis 0 0 0  XYZ 
  end
  begin
     id 7 
     name rfemur
     direction -0.34202 -0.939693 0   
     length 7.36786   
     axis 0 0 -20   XYZ
    dof rx ry rz
    limits (-160.0 20.0)
           (-70.0 70.0)
           (-70.0 60.0)
  end
  begin
     id 8 
     name rtibia
     direction -0.34202 -0.939693 0   
     length 8.07288   
     axis 0 0 -20   XYZ
    dof rx
    limits (-10.0 170.0)
 end
 begin
     id 9 
     name rfoot
     direction -0.0428397 -0.117701 0.992125   
     length 1.88295  
     axis -90 -7.62852e-016 -20   XYZ
    dof rx rz
    limits (-45.0 90.0)
           (-20.0 70.0)
  end
  begin
     id 10 
     name rtoes
     direction -1.53456e-011 -4.2187e-011 1   
     length 0.955578   
     axis -90 -7.62852e-016 -20   XYZ
    dof rx
    limits (-90.0 20.0)
  end
  begin
     id 11 
     name lowerback
     direction 0.0288145 0.999398 -0.0193241   
     length 1.92149   
     axis 0 0 0   XYZ
    dof rx ry rz
    limits (-20.0 45.0)
           (-30.0 30.0)
           (-30.0 30.0)
  end
  begin
     id 12 
     name upperback
     direction 0.0233784 0.998099 0.0570278   
     length 1.90435   
     axis 0 0 0   XYZ
    dof rx ry rz
    limits (-20.0 45.0)
           (-30.0 30.0)
           (-30.0 30.0)
  end
  begin
     id 13 
     name thorax
     direction 0.0096694 0.997833 0.0650817   
     length 1.9111   
     axis 0 0 0   XYZ
    dof rx ry rz
    limits (-20.0 45.0)
           (-30.0 30.0)
           (-30.0 30.0)
  end
  begin
     id 14 
     name lowerneck
     direction 0.00516803 0.999916 0.0118722   
     length 1.74664   
     axis 0 0 0   XYZ
    dof rx ry rz
    limits (-20.0 45.0)
           (-30.0 30.0)
           (-30.0 30.0)
  end
  begin
     id 15 
     name upperneck
     direction -0.0510851 0.996117 -0.071696   
     length 1.68498   
     axis 0 0 0   XYZ
    dof rx ry rz
    limits (-20.0 45.0)
           (-30.0 30.0)
           (-30.0 30.0)
  end
  begin
     id 16
     name head
     direction -0.019188 0.999436 -0.0275702  
     length 1.83483  
     axis 0 0 0   XYZ
    dof rx ry rz
    limits (-20.0 45.0)
           (-30.0 30.0)
           (-30.0 30.0)
  end
  begin
     id 17 
     name lclavicle
     direction 0.967006 0.248456 -0.0562957  
     length 3.39395  
     axis 0 0 0   XYZ
    dof ry rz
    limits (-20.0 10.0)
           (0.0 20.0)
  end
  begin
     id 18 
     name lhumerus
     direction 1 -4.48962e-011 -5.62711e-019   
     length 5.24318   
     axis 180 -30 -90   XYZ
    dof rx ry rz
    limits (-60.0 90.0)
           (-90.0 90.0)
           (-90.0 90.0)
  end
  begin
     id 19
     name lradius
     direction 1 -4.48966e-011 7.90625e-027   
     length 2.98999   
     axis 180 -30 -90   XYZ
    dof rx
    limits (-10.0 170.0)
  end
  begin
     id 20
     name lwrist
     direction 1 -4.48959e-011 1.61068e-026   
     length 1.49499   
     axis -9.31229e-015 90 90   XYZ
    dof ry
    limits (-180.0 0.0)
 end
  begin
     id 21 
     name lhand
     direction 1 -4.49017e-011 3.22136e-026   
     length 0.726745   
     axis -2.0555e-014 90 90   XYZ
    dof rx rz
    limits (-90.0 90.0)
           (-45.0 45.0)
  end
  begin
     id 22 
     name lfingers
     direction 1 -4.4898e-011 6.44272e-026   
     length 0.58592   
     axis -4.11101e-014 90 90   XYZ
    dof rx
    limits (0.0 90.0)
  end
  begin
     id 23
     name lthumb
     direction 0.707107 -6.34922e-011 0.707107   
     length 0.841268   
     axis -90 45 2.85299e-015   XYZ
    dof rx rz
    limits (-45.0 45.0)
           (-45.0 45.0)
  end
  begin
     id 24 
     name rclavicle
     direction -0.972232 0.230238 0.0419005   
     length 3.40416  
     axis 0 0 0   XYZ 
    dof ry rz
    limits (-10.0 20.0)
           (-20.0 0.0)
  end
  begin
     id 25 
     name rhumerus
     direction -1 -4.48976e-011 2.48487e-027  
     length 5.37045   
     axis 180 30 90   XYZ
    dof rx ry rz
    limits (-90.0 60.0)
           (-90.0 90.0)
           (-90.0 90.0)
  end
  begin
     id 26 
     name rradius
     direction -1 -4.48942e-011 7.87951e-027   
     length 2.92792   
     axis 180 30 90   XYZ
    dof rx
    limits (-10.0 170.0)
  end
  begin
     id 27 
     name rwrist
     direction -1 -4.48969e-011 1.61068e-026   
     length 1.46396   
     axis -9.31229e-015 -90 -90   XYZ
    dof ry
    limits (-180.0 0.0)
  end
  begin
     id 28
     name rhand
     direction -1 -4.49043e-011 3.22136e-026   
     length 0.784497   
     axis -2.0555e-014 -90 -90   XYZ
    dof rx rz
    limits (-90.0 90.0)
           (-45.0 45.0)
  end
  begin
     id 29
     name rfingers
     direction -1 -4.48823e-011 6.44272e-026   
     length 0.632482   
     axis -4.11101e-014 -90 -90   XYZ
    dof rx
    limits (0.0 90.0)
  end
  begin
     id 30
     name rthumb
     direction -0.707107 -6.34923e-011 0.707107   
     length 0.908121   
     axis -90 -45 -2.85299e-015   XYZ
    dof rx rz
    limits (-45.0 45.0)
           (-45.0 45.0)
  end
:hierarchy
  begin
    root lhipjoint rhipjoint lowerback
    lhipjoint lfemur
    lfemur ltibia
    ltibia lfoot
    lfoot ltoes
    rhipjoint rfemur
    rfemur rtibia
    rtibia rfoot
    rfoot rtoes
    lowerback upperback
    upperback thorax
    thorax lowerneck lclavicle rclavicle
    lowerneck upperneck
    upperneck head
    lclavicle lhumerus
    lhumerus lradius
    lradius lwrist
    lwrist lhand lthumb
    lhand lfingers
    rclavicle rhumerus
    rhumerus rradius
    rradius rwrist
    rwrist rhand rthumb
    rhand rfingers
  end

#!OML:ASF E:\Style6\Style6.ASF
:FULLY-SPECIFIED
:DEGREES
125
root 0.494827 16.0954 0.84829 22.1754 -4.38659 0.308273
lowerback 5.02959 -2.7638 -0.289907
upperback -11.5584 -3.57251 2.46598
thorax -15.4406 -1.47187 3.57516
lowerneck -9.88098 -5.34946 1.91381
upperneck 3.50287 -7.06977 -5.29239
head 2.58548 -3.68785 -2.42343
rclavicle -2.92338e-014 2.78299e-015
rhumerus -78.1913 5.27542 -79.409
rradius 128.408
rwrist -23.7891
rhand 57.1432 -0.962627
rfingers 7.12502
rthumb 73.7433 21.8213
lclavicle -2.92338e-014 2.78299e-015
lhumerus -82.1035 -8.28258 89.0376
lradius 120.73
lwrist 43.5085
lhand 29.0135 43.9754
lfingers 7.12502
lthumb 52.8179 63.5824
rfemur -56.5572 -18.1418 24.5458
rtibia 63.0982
rfoot -20.6303 10.5079
rtoes -0.0635927
lfemur -52.0227 14.2058 -23.9007
ltibia 62.6876
lfoot -26.4197 1.5773
ltoes -22.7561
126
root 0.496288 16.0948 0.851796 22.0824 -4.42293 0.184927
lowerback 4.95902 -2.73602 -0.245824
upperback -11.4988 -3.5214 2.52134
thorax -15.3229 -1.4521 3.59422
lowerneck -7.91332 -5.53037 1.76485
upperneck 1.67976 -7.36116 -5.10445
head 1.61902 -3.79578 -2.19489
rclavicle 2.32578e-014 -6.75868e-015
rhumerus -77.9934 5.37916 -79.3212
rradius 128.395
rwrist -23.7902
rhand 57.1138 -0.871804
rfingers 7.12502
rthumb 73.7321 21.8187
lclavicle 2.32578e-014 -6.75868e-015
lhumerus -81.9333 -8.32073 89.1113
lradius 120.741
lwrist 43.5237
lhand 28.863 43.9335
lfingers 7.12502
lthumb 52.6819 63.6252
rfemur -56.3988 -18.069 24.5999
rtibia 63.0654
rfoot -20.508 10.7692
rtoes 1.46762
lfemur -51.9121 14.2584 -23.7429
ltibia 62.7275
lfoot -26.4314 1.41385
ltoes -22.138
127
root 0.497064 16.0959 0.857414 21.9637 -4.42271 0.0955686
lowerback 4.79912 -2.74342 -0.215609
upperback -11.3808 -3.52201 2.57067
thorax -15.0719 -1.45998 3.61241
lowerneck -5.71028 -5.63323 2.00712
upperneck -0.483375 -7.59012 -5.17973
head 0.522466 -3.86669 -2.10913
rclavicle -4.19902e-014 -1.31198e-014
rhumerus -77.6322 5.52109 -79.2571
rradius 128.361
rwrist -23.801
rhand 57.1832 -0.936375
rfingers 7.12502
rthumb 73.7583 21.9744
lclavicle -4.19902e-014 -1.31198e-014
lhumerus -81.6926 -8.31827 89.1253
lradius 120.773
lwrist 43.5675
lhand 28.7038 44.0564
lfingers 7.12502
lthumb 52.5379 63.8371
rfemur -56.2102 -18.0678 24.6456
rtibia 63.0389
rfoot -20.5603 10.7114
rtoes 1.02954
lfemur -51.7523 14.2776 -23.5994
ltibia 62.7549
lfoot -26.4543 1.42036
ltoes -22.174
128
root 0.498011 16.0974 0.863452 21.8729 -4.40952 0.0598901
lowerback 4.56464 -2.76894 -0.236629
upperback -11.2602 -3.55584 2.61205
thorax -14.7659 -1.48026 3.64985
lowerneck -3.28735 -5.71986 2.53143
upperneck -2.87585 -7.81466 -5.4716
head -0.679242 -3.92721 -2.15362
rclavicle 1.82199e-014 6.36111e-015
rhumerus -77.2965 5.70379 -79.2711
rradius 128.307
rwrist -23.6678
rhand 57.2218 -0.737799
rfingers 7.12502
rthumb 73.7728 22.2958
lclavicle 1.82199e-014 6.36111e-015
lhumerus -81.3888 -8.3096 89.117
lradius 120.743
lwrist 43.6146
lhand 28.6044 44.0401
lfingers 7.12502
lthumb 52.4479 63.8759
rfemur -56.0604 -18.1106 24.657
rtibia 63.0152
rfoot -20.612 10.6517
rtoes 0.378614
lfemur -51.6124 14.2834 -23.533
ltibia 62.7589
lfoot -26.5109 1.54456
ltoes -22.496
129
root 0.499377 16.1001 0.868657 21.7565 -4.39675 -0.0158212
lowerback 4.41638 -2.78609 -0.250474
upperback -11.1689 -3.57601 2.65995
thorax -14.5536 -1.4914 3.6965
lowerneck -0.937939 -5.83347 2.76315
upperneck -4.85163 -8.02998 -5.43181
head -1.73034 -3.98205 -2.07573
rclavicle 3.01221e-014 3.57812e-015
rhumerus -77.033 5.9039 -79.3529
rradius 128.226
rwrist -23.4198
rhand 57.0413 -0.316941
rfingers 7.12502
rthumb 73.7045 22.1443
lclavicle 3.01221e-014 3.57812e-015
lhumerus -81.1041 -8.33792 89.0973
lradius 120.672
lwrist 43.6738
lhand 28.5809 43.993
lfingers 7.12502
lthumb 52.4267 63.8417
rfemur -55.8712 -18.1439 24.6975
rtibia 62.9732
rfoot -20.6202 10.6913
rtoes 0.282693
lfemur -51.451 14.3024 -23.4128
ltibia 62.7628
lfoot -26.5337 1.58943
ltoes -22.647
130
root 0.500742 16.1043 0.876941 21.5943 -4.39221 -0.0853082
lowerback 4.27475 -2.80517 -0.268165
upperback -11.0633 -3.59997 2.70201
thorax -14.3289 -1.50482 3.73865
lowerneck 1.13232 -5.91035 3.02447
upperneck -6.24693 -8.16184 -5.40798
head -2.57761 -4.00563 -2.03519
rclavicle 2.33665e-014 -5.96354e-015
rhumerus -76.725 6.10286 -79.3926
rradius 128.128
rwrist -23.3226
rhand 56.8842 -0.216919
rfingers 7.12502
rthumb 73.6436 21.7498
lclavicle 2.33665e-014 -5.96354e-015
lhumerus -80.8333 -8.34891 89.0858
lradius 120.595
lwrist 43.7307
lhand 28.5611 43.9158
lfingers 7.12502
lthumb 52.4088 63.7754
rfemur -55.6096 -18.1932 24.7097
rtibia 62.9258
rfoot -20.6896 10.7007
rtoes 0.0697288
lfemur -51.2059 14.3425 -23.2794
ltibia 62.7542
lfoot -26.5765 1.23937
ltoes -21.6527
131
root 0.502173 16.1078 0.887644 21.4274 -4.41054 -0.206773
lowerback 4.05701 -2.81249 -0.223112
upperback -10.8982 -3.5995 2.75888
thorax -13.9891 -1.51613 3.74839
lowerneck 2.68156 -5.99076 3.01303
upperneck -6.92952 -8.26242 -5.21629
head -3.08828 -4.028 -1.91566
rclavicle 2.5109e-014 9.93923e-015
rhumerus -76.2945 6.29004 -79.3453
rradius 128.058
rwrist -23.4351
rhand 56.9234 -0.265818
rfingers 7.12502
rthumb 73.6589 21.8238
lclavicle 2.5109e-014 9.93923e-015
lhumerus -80.5061 -8.31201 89.041
lradius 120.538
lwrist 43.8264
lhand 28.6265 43.9982
lfingers 7.12502
lthumb 52.468 63.8217
rfemur -55.3161 -18.2046 24.7581
rtibia 62.8667
rfoot -20.7454 10.7651
rtoes 0.00827339
lfemur -50.9424 14.4343 -23.1051
ltibia 62.7634
lfoot -26.6431 1.10673
ltoes -21.3526
